{"title":"The Passion of the Christ [2004] 720p BRRip H264 AC3 - CODY","uid":7284596,"size":1993660610,"categoryP":"video","categoryS":"hd___movies","magnet":"?xt=urn:btih:a3c8fb302972f2d25b6ecd3995c3b45f00649aa2&amp;dn=The+Passion+of+the+Christ+%5B2004%5D+720p+BRRip+H264+AC3+-+CODY&amp;tr=udp%3A%2F%2Ftracker.openbittorrent.com%3A80&amp;tr=udp%3A%2F%2Fopen.demonii.com%3A1337&amp;tr=udp%3A%2F%2Ftracker.coppersurfer.tk%3A6969&amp;tr=udp%3A%2F%2Fexodus.desync.com%3A6969","seeders":0,"leechers":2,"uploader":"CODYBOSS1969","files":23,"time":1337541691,"description":"General\nComplete name                            : The Passion of the Christ [2004] 720p BRRip H264 AC3 - CODY.mp4\nFormat                                   : MPEG-4\nFormat profile                           : Base Media\nCodec ID                                 : isom\nFile size                                : 1.86 GiB\nDuration                                 : 2h 6mn\nOverall bit rate mode                    : Variable\nOverall bit rate                         : 2 100 Kbps\nEncoded date                             : UTC 2012-05-14 19:58:57\n\nVideo\nID                                       : 1\nFormat                                   : AVC\nFormat/Info                              : Advanced Video Codec\nFormat profile                           : &lt;a class=&quot;__cf_email__&quot; href=&quot;/cdn-cgi/l/email-protection&quot; data-cfemail=&quot;db93b2bcb39b97eff5ea&quot;&gt;[email&amp;#160;protected]&lt;/a&gt;&lt;script cf-hash='f9e31' type=&quot;text/javascript&quot;&gt;\n/* &lt;![CDATA[ */!function(){try{var t=&quot;currentScript&quot;in document?document.currentScript:function(){for(var t=document.getElementsByTagName(&quot;script&quot;),e=t.length;e--;)if(t[e].getAttribute(&quot;cf-hash&quot;))return t[e]}();if(t&amp;&amp;t.previousSibling){var e,r,n,i,c=t.previousSibling,a=c.getAttribute(&quot;data-cfemail&quot;);if(a){for(e=&quot;&quot;,r=parseInt(a.substr(0,2),16),n=2;a.length-n;n+=2)i=parseInt(a.substr(n,2),16)^r,e+=String.fromCharCode(i);e=document.createTextNode(e),c.parentNode.replaceChild(e,c)}}}catch(u){}}();/* ]]&gt; */&lt;/script&gt;\nFormat settings, CABAC                   : Yes\nFormat settings, ReFrames                : 5 frames\nCodec ID                                 : avc1\nCodec ID/Info                            : Advanced Video Coding\nDuration                                 : 2h 6mn\nBit rate mode                            : Variable\nBit rate                                 : 1 650 Kbps\nMaximum bit rate                         : 20.0 Mbps\nWidth                                    : 1 280 pixels\nHeight                                   : 536 pixels\nDisplay aspect ratio                     : 2.40:1\nFrame rate mode                          : Constant\nFrame rate                               : 23.976 fps\nColor space                              : YUV\nChroma subsampling                       : 4:2:0\nBit depth                                : 8 bits\nScan type                                : Progressive\nBits/(Pixel*Frame)                       : 0.100\nStream size                              : 1.46 GiB (79%)\nWriting library                          : x264 core 119 r2106 07efeb4\nEncoding settings                        : rc=2pass\n\nAudio\nID                                       : 2\nFormat                                   : AC-3\nFormat/Info                              : Audio Coding 3\nMode extension                           : CM (complete main)\nCodec ID                                 : ac-3\nDuration                                 : 2h 6mn\nBit rate mode                            : Constant\nBit rate                                 : 448 Kbps\nChannel(s)                               : 6 channels\nChannel positions                        : Front: L C R, Side: L R, LFE\nSampling rate                            : 48.0 KHz\nBit depth                                : 16 bits\nCompression mode                         : Lossy\nStream size                              : 405 MiB (21%)\n\n\nIMDB link:                                &lt;a href=&quot; http://www.imdb.com/title/tt0335345/&quot; rel=&quot;nofollow&quot; target=&quot;_NEW&quot;&gt; http://www.imdb.com/title/tt0335345/&lt;/a&gt;\n\n\nSpoken languages                         : Aramaic, Latin, Hebrew\n\n\nSubtitles included: Arabic, Chinese, Croatian, Danish, Dutch, English, Farsi, French, Greek, Hungarian, Italian, Portuguese, Portuguese-Brazilian, Romanian, Serbian, Slovenian, Spanish, Turkish, Vietnamese\n\n\nPlease seed at least 1,5:1 . This way this torrent has a chance to survive !\n\n\nThanks. Enjoy !!\n","torrent":{"xt":"urn:btih:a3c8fb302972f2d25b6ecd3995c3b45f00649aa2","amp;dn":"The+Passion+of+the+Christ+%5B2004%5D+720p+BRRip+H264+AC3+-+CODY","amp;tr":["udp%3A%2F%2Ftracker.openbittorrent.com%3A80","udp%3A%2F%2Fopen.demonii.com%3A1337","udp%3A%2F%2Ftracker.coppersurfer.tk%3A6969","udp%3A%2F%2Fexodus.desync.com%3A6969"],"infoHash":"a3c8fb302972f2d25b6ecd3995c3b45f00649aa2","infoHashBuffer":{"type":"Buffer","data":[163,200,251,48,41,114,242,210,91,110,205,57,149,195,180,95,0,100,154,162]},"announce":[],"urlList":[]}}